<svg width="24.000000000000004" height="24.000000000000004" xmlns="http://www.w3.org/2000/svg">
 <g>
  <title>Layer 1</title>
  <path fill="#ffffff" d="m19,8.424l0,-1.424a7,7 0 0 0 -14,0l0,1.424a5,5 0 0 0 -3,4.576l0,6a5.006,5.006 0 0 0 5,5l10,0a5.006,5.006 0 0 0 5,-5l0,-6a5,5 0 0 0 -3,-4.576zm-12,-1.424a5,5 0 0 1 10,0l0,1l-10,0l0,-1zm13,12a3,3 0 0 1 -3,3l-10,0a3,3 0 0 1 -3,-3l0,-6a3,3 0 0 1 3,-3l10,0a3,3 0 0 1 3,3l0,6z" id="svg_1"/>
  <path fill="#ffffff" d="m12,14a1,1 0 0 0 -1,1l0,2a1,1 0 0 0 2,0l0,-2a1,1 0 0 0 -1,-1z" id="svg_2"/>
 </g>

</svg>