<?xml version="1.0" standalone="no"?><!DOCTYPE svg PUBLIC "-//W3C//DTD SVG 1.1//EN" "http://www.w3.org/Graphics/SVG/1.1/DTD/svg11.dtd"><svg t="1677076224937" class="icon" viewBox="0 0 1075 1024" version="1.1" xmlns="http://www.w3.org/2000/svg" p-id="3507" xmlns:xlink="http://www.w3.org/1999/xlink" width="209.9609375" height="200"><path d="M1073.975668 282.445372a51.141698 51.141698 0 1 1-102.283397 0A178.995945 178.995945 0 0 0 774.796732 103.449428 185.644365 185.644365 0 0 0 613.700382 292.162295V359.15792a51.141698 51.141698 0 0 0 51.141698 51.141698h102.283397a153.425095 153.425095 0 0 1 153.425095 153.425096v306.850191a153.425095 153.425095 0 0 1-153.425095 153.425095H153.425095a153.425095 153.425095 0 0 1-153.425095-153.425095v-306.850191a153.425095 153.425095 0 0 1 153.425095-153.425096h306.850191a51.141698 51.141698 0 0 0 51.141699-51.141698V292.162295A288.950596 288.950596 0 0 1 767.125477 1.166031a281.279342 281.279342 0 0 1 306.850191 281.279341z" fill="#1685a9" p-id="3508"></path></svg>