<?xml version="1.0" standalone="no"?><!DOCTYPE svg PUBLIC "-//W3C//DTD SVG 1.1//EN" "http://www.w3.org/Graphics/SVG/1.1/DTD/svg11.dtd"><svg t="1677076233848" class="icon" viewBox="0 0 1024 1024" version="1.1" xmlns="http://www.w3.org/2000/svg" p-id="3681" xmlns:xlink="http://www.w3.org/1999/xlink" width="200" height="200"><path d="M818.237751 359.233949a51.13585 51.13585 0 0 1-51.13585-51.13585v-39.885963A263.349628 263.349628 0 0 0 536.990576 1.282998 255.67925 255.67925 0 0 0 255.7434 256.962249v51.13585a51.13585 51.13585 0 0 1-51.13585 51.13585 153.40755 153.40755 0 0 0-153.40755 153.40755v357.950951a153.40755 153.40755 0 0 0 153.40755 153.40755h613.630201a153.40755 153.40755 0 0 0 153.40755-153.40755v-357.950951a153.40755 153.40755 0 0 0-153.40755-153.40755zM358.0151 256.962249a153.40755 153.40755 0 0 1 184.089061-150.339399A157.498418 157.498418 0 0 1 664.830201 263.098551V308.098099a51.13585 51.13585 0 0 1-51.13585 51.13585H409.150951a51.13585 51.13585 0 0 1-51.135851-51.13585z" fill="#1685a9" p-id="3682"></path></svg>