<?xml version="1.0" standalone="no"?><!DOCTYPE svg PUBLIC "-//W3C//DTD SVG 1.1//EN" "http://www.w3.org/Graphics/SVG/1.1/DTD/svg11.dtd"><svg t="1677076241936" class="icon" viewBox="0 0 1609 1024" version="1.1" xmlns="http://www.w3.org/2000/svg" p-id="3855" xmlns:xlink="http://www.w3.org/1999/xlink" width="314.2578125" height="200"><path d="M0 219.428571a73.142857 73.142857 0 0 1 73.142857-73.142857h195.291429a37.302857 37.302857 0 0 0 33.645714-22.674285 219.428571 219.428571 0 0 1 393.508571 0A37.302857 37.302857 0 0 0 731.428571 146.285714h804.571429a73.142857 73.142857 0 0 1 0 146.285715H731.428571a37.302857 37.302857 0 0 0-33.645714 22.674285 219.428571 219.428571 0 0 1-393.508571 0A37.302857 37.302857 0 0 0 268.434286 292.571429H73.142857a73.142857 73.142857 0 0 1-73.142857-73.142858z m1536 512h-195.291429a37.302857 37.302857 0 0 1-33.645714-22.674285 219.428571 219.428571 0 0 0-393.508571 0A37.302857 37.302857 0 0 1 877.714286 731.428571H73.142857a73.142857 73.142857 0 0 0 0 146.285715h804.571429a37.302857 37.302857 0 0 1 33.645714 22.674285 219.428571 219.428571 0 0 0 393.508571 0 37.302857 37.302857 0 0 1 33.645715-22.674285H1536a73.142857 73.142857 0 0 0 0-146.285715z" fill="#1685a9" p-id="3856"></path></svg>