<?xml version="1.0" standalone="no"?><!DOCTYPE svg PUBLIC "-//W3C//DTD SVG 1.1//EN" "http://www.w3.org/Graphics/SVG/1.1/DTD/svg11.dtd"><svg t="1677076156436" class="icon" viewBox="0 0 1024 1024" version="1.1" xmlns="http://www.w3.org/2000/svg" p-id="2917" xmlns:xlink="http://www.w3.org/1999/xlink" width="200" height="200"><path d="M950.702852 871.881586L798.420513 680.946544a419.125703 419.125703 0 1 0-145.762605 115.958111l151.350948 190.935042a93.139045 93.139045 0 1 0 145.762606-115.958111zM612.142423 465.79535h-93.139045v93.139045a46.569523 46.569523 0 1 1-93.139045 0v-93.139045H332.725288a46.569523 46.569523 0 0 1 0-93.139045h93.139045V279.51726a46.569523 46.569523 0 0 1 93.139045 0v93.139045h93.139045a46.569523 46.569523 0 0 1 0 93.139045z" fill="#1685a9" p-id="2918"></path></svg>